<svg width="112" height="18" viewBox="0 0 112 18" fill="none" xmlns="http://www.w3.org/2000/svg">
<path d="M8.13281 17.9297C6.58594 17.9297 5.19922 17.5781 3.97266 16.875C2.74609 16.1719 1.77734 15.1523 1.06641 13.8164C0.355469 12.4805 0 10.8672 0 8.97656C0 7.07031 0.355469 5.44922 1.06641 4.11328C1.78516 2.76953 2.75781 1.75 3.98438 1.05469C5.21875 0.351562 6.60156 0 8.13281 0C9.14844 0 10.0898 0.144531 10.957 0.433594C11.8242 0.714844 12.5898 1.12891 13.2539 1.67578C13.9258 2.21484 14.4727 2.87891 14.8945 3.66797C15.3164 4.44922 15.5859 5.34375 15.7031 6.35156H11.9766C11.9062 5.875 11.7656 5.44531 11.5547 5.0625C11.3516 4.67969 11.082 4.35547 10.7461 4.08984C10.418 3.82422 10.0391 3.62109 9.60938 3.48047C9.1875 3.33203 8.72266 3.25781 8.21484 3.25781C7.32422 3.25781 6.53906 3.48438 5.85938 3.9375C5.1875 4.38281 4.66406 5.03125 4.28906 5.88281C3.92188 6.72656 3.73828 7.75781 3.73828 8.97656C3.73828 10.2188 3.92578 11.2656 4.30078 12.1172C4.67578 12.9609 5.19922 13.5977 5.87109 14.0273C6.54297 14.457 7.32031 14.6719 8.20312 14.6719C8.69531 14.6719 9.15234 14.6055 9.57422 14.4727C9.99609 14.3398 10.3711 14.1484 10.6992 13.8984C11.0273 13.6484 11.3008 13.3438 11.5195 12.9844C11.7461 12.6172 11.8984 12.1992 11.9766 11.7305H15.7031C15.6094 12.5352 15.3711 13.3086 14.9883 14.0508C14.6133 14.793 14.1016 15.457 13.4531 16.043C12.8047 16.6211 12.0352 17.082 11.1445 17.4258C10.2539 17.7617 9.25 17.9297 8.13281 17.9297ZM17.5898 17.6953V0.234375H24.4688C25.7891 0.234375 26.9141 0.46875 27.8438 0.9375C28.7812 1.40625 29.4961 2.07031 29.9883 2.92969C30.4883 3.78125 30.7383 4.78516 30.7383 5.94141C30.7383 7.09766 30.4883 8.09375 29.9883 8.92969C29.4883 9.76562 28.7617 10.4062 27.8086 10.8516C26.8633 11.2891 25.7188 11.5078 24.375 11.5078H19.7695V8.54297H23.7773C24.4883 8.54297 25.0742 8.44531 25.5352 8.25C26.0039 8.05469 26.3516 7.76562 26.5781 7.38281C26.8125 7 26.9297 6.51953 26.9297 5.94141C26.9297 5.35547 26.8125 4.86719 26.5781 4.47656C26.3516 4.07812 26.0039 3.77734 25.5352 3.57422C25.0664 3.36328 24.4766 3.25781 23.7656 3.25781H21.2695V17.6953H17.5898ZM27.2812 17.6953L23.0273 9.75H27.0117L31.3594 17.6953H27.2812ZM40.4297 17.9297C38.8828 17.9297 37.4922 17.5781 36.2578 16.875C35.0234 16.1719 34.0469 15.1523 33.3281 13.8164C32.6094 12.4805 32.25 10.8672 32.25 8.97656C32.25 7.07031 32.6094 5.44922 33.3281 4.11328C34.0469 2.76953 35.0234 1.75 36.2578 1.05469C37.4922 0.351562 38.8828 0 40.4297 0C41.9766 0 43.3672 0.351562 44.6016 1.05469C45.8359 1.75 46.8086 2.76953 47.5195 4.11328C48.2383 5.44922 48.5977 7.07031 48.5977 8.97656C48.5977 10.875 48.2383 12.4922 47.5195 13.8281C46.8086 15.1641 45.8359 16.1836 44.6016 16.8867C43.3672 17.582 41.9766 17.9297 40.4297 17.9297ZM40.4297 14.6719C41.3281 14.6719 42.1094 14.4531 42.7734 14.0156C43.4375 13.5781 43.9492 12.9375 44.3086 12.0938C44.6758 11.2422 44.8594 10.2031 44.8594 8.97656C44.8594 7.74219 44.6758 6.69922 44.3086 5.84766C43.9492 4.99609 43.4375 4.35156 42.7734 3.91406C42.1094 3.47656 41.3281 3.25781 40.4297 3.25781C39.5391 3.25781 38.7617 3.47656 38.0977 3.91406C37.4336 4.35156 36.9141 4.99609 36.5391 5.84766C36.1719 6.69922 35.9883 7.74219 35.9883 8.97656C35.9883 10.2031 36.1719 11.2422 36.5391 12.0938C36.9141 12.9375 37.4336 13.5781 38.0977 14.0156C38.7617 14.4531 39.5391 14.6719 40.4297 14.6719ZM52.7227 0.234375L56.9297 13.5H57.0938L61.3242 0.234375H65.4023L59.3906 17.6953H54.6328L48.6094 0.234375H52.7227ZM69.8789 0.234375L74.0859 13.5H74.25L78.4805 0.234375H82.5586L76.5469 17.6953H71.7891L65.7656 0.234375H69.8789ZM83.8711 17.6953V0.234375H95.6367V3.28125H87.5508V7.38281H95.0273V10.3711H87.5508V14.6484H95.6602V17.6953H83.8711ZM97.793 17.6953V0.234375H104.672C105.992 0.234375 107.117 0.46875 108.047 0.9375C108.984 1.40625 109.699 2.07031 110.191 2.92969C110.691 3.78125 110.941 4.78516 110.941 5.94141C110.941 7.09766 110.691 8.09375 110.191 8.92969C109.691 9.76562 108.965 10.4062 108.012 10.8516C107.066 11.2891 105.922 11.5078 104.578 11.5078H99.9727V8.54297H103.98C104.691 8.54297 105.277 8.44531 105.738 8.25C106.207 8.05469 106.555 7.76562 106.781 7.38281C107.016 7 107.133 6.51953 107.133 5.94141C107.133 5.35547 107.016 4.86719 106.781 4.47656C106.555 4.07812 106.207 3.77734 105.738 3.57422C105.27 3.36328 104.68 3.25781 103.969 3.25781H101.473V17.6953H97.793ZM107.484 17.6953L103.23 9.75H107.215L111.562 17.6953H107.484Z" fill="#D2FEFF"/>
</svg>
